<svg xmlns="http://www.w3.org/2000/svg" xmlns:xlink="http://www.w3.org/1999/xlink" id="Layer_1" width="120" height="120" x="0" y="0" enable-background="new 0 0 120 120" version="1.1" viewBox="0 0 120 120" xml:space="preserve"><g><path fill="#FFF" d="M59.351,116.451c-31.154,0-56.5-25.345-56.5-56.499s25.346-56.5,56.5-56.5c31.155,0,56.5,25.346,56.5,56.5 S90.506,116.451,59.351,116.451z M59.351,14.983c-24.796,0-44.969,20.173-44.969,44.969s20.173,44.968,44.969,44.968 c24.795,0,44.969-20.172,44.969-44.968S84.146,14.983,59.351,14.983z"/></g><g><path fill="#FFF" d="M43.539,85.478V34.425l45.859,25.527L43.539,85.478z M52.763,50.117v19.668l17.668-9.834L52.763,50.117z"/></g></svg>